HIERARCHY
ROOT Hips
{
 OFFSET 0.000000 0.000000 0.000000
 CHANNELS 6 Xposition Yposition Zposition Yrotation Xrotation Zrotation
 JOINT Chest
 {
  OFFSET 0.000000 9.585900 0.002600
  CHANNELS 3 Yrotation Xrotation Zrotation
  JOINT Chest2
  {
   OFFSET 0.000000 9.601200 -0.005300
   CHANNELS 3 Yrotation Xrotation Zrotation
   JOINT Chest3
   {
    OFFSET 0.000000 9.561800 0.000000
    CHANNELS 3 Yrotation Xrotation Zrotation
    JOINT Chest4
    {
     OFFSET 0.000000 9.552100 0.000000
     CHANNELS 3 Yrotation Xrotation Zrotation
     JOINT Neck
     {
      OFFSET 0.000000 14.453000 0.000000
      CHANNELS 3 Yrotation Xrotation Zrotation
      JOINT Head
      {
       OFFSET 0.000000 8.936500 -0.011300
       CHANNELS 3 Yrotation Xrotation Zrotation
       End Site
       {
        OFFSET 0.000000 17.073600 -0.006000
       }
      }
     }
     JOINT RightCollar
     {
      OFFSET -2.921100 9.558500 0.000000
      CHANNELS 3 Yrotation Xrotation Zrotation
      JOINT RightShoulder
      {
       OFFSET -13.519700 0.000000 0.000000
       CHANNELS 3 Yrotation Xrotation Zrotation
       JOINT RightElbow
       {
        OFFSET 0.000000 -29.696600 0.000000
        CHANNELS 3 Yrotation Xrotation Zrotation
        JOINT RightWrist
        {
         OFFSET 0.000000 -24.004700 0.000000
         CHANNELS 3 Yrotation Xrotation Zrotation
         End Site
         {
          OFFSET 0.000000 -17.728500 0.000000
         }
        }
       }
      }
     }
     JOINT LeftCollar
     {
      OFFSET 2.921100 9.558500 0.000000
      CHANNELS 3 Yrotation Xrotation Zrotation
      JOINT LeftShoulder
      {
       OFFSET 13.519700 0.000000 0.000000
       CHANNELS 3 Yrotation Xrotation Zrotation
       JOINT LeftElbow
       {
        OFFSET 0.000000 -29.696600 0.000000
        CHANNELS 3 Yrotation Xrotation Zrotation
        JOINT LeftWrist
        {
         OFFSET 0.000000 -24.004700 0.000000
         CHANNELS 3 Yrotation Xrotation Zrotation
         End Site
         {
          OFFSET 0.000000 -17.728500 0.000000
         }
        }
       }
      }
     }
    }
   }
  }
 }
 JOINT RightHip
 {
  OFFSET -7.771700 -0.012900 -0.001300
  CHANNELS 3 Yrotation Xrotation Zrotation
  JOINT RightKnee
  {
   OFFSET 0.000000 -40.869800 0.001200
   CHANNELS 3 Yrotation Xrotation Zrotation
   JOINT RightAnkle
   {
    OFFSET 0.000000 -39.717900 0.002100
    CHANNELS 3 Yrotation Xrotation Zrotation
    JOINT RightToe
    {
     OFFSET 0.000000 -4.965400 11.033500
     CHANNELS 3 Yrotation Xrotation Zrotation
     End Site
     {
      OFFSET 0.000000 -1.423100 5.872300
     }
    }
   }
  }
 }
 JOINT LeftHip
 {
  OFFSET 7.771700 -0.012900 -0.001300
  CHANNELS 3 Yrotation Xrotation Zrotation
  JOINT LeftKnee
  {
   OFFSET 0.000000 -40.869800 0.001200
   CHANNELS 3 Yrotation Xrotation Zrotation
   JOINT LeftAnkle
   {
    OFFSET 0.000000 -39.717900 0.002100
    CHANNELS 3 Yrotation Xrotation Zrotation
    JOINT LeftToe
    {
     OFFSET 0.000000 -4.965400 11.033500
     CHANNELS 3 Yrotation Xrotation Zrotation
     End Site
     {
      OFFSET 0.000000 -1.423100 5.872300
     }
    }
   }
  }
 }
}
MOTION
Frames: 5
Frame Time: 0.008333
0.000000 85.388000 0.000000 0.000000 -5.767877 0.000000 0.000000 11.653817 0.000000 0.000000 -5.885947 0.000000 0.000000 -0.000000 0.000000 0.000000 -0.000000 0.000000 0.000000 12.528835 0.000000 0.000000 0.711642 0.000000 0.000000 -0.000000 0.000000 0.000000 0.000000 -90.000000 0.000000 -2.309062 0.000000 0.000000 2.309062 0.000000 0.000000 -0.000000 0.000000 0.000000 -0.000000 90.000000 0.000000 -2.309062 0.000000 0.000000 2.309062 0.000000 0.000000 8.520406 0.000000 0.000000 1.905762 0.000000 -0.000000 -4.658285 0.000000 0.000000 -0.000000 0.000000 0.000000 8.520406 0.000000 0.000000 1.905762 0.000000 -0.000000 -4.658285 0.000000 0.000000 -0.000000 0.000000
-48.962917 43.831189 24.607140 175.017518 -24.362795 -2.694857 1.120436 13.448262 3.322949 0.056823 1.131031 0.313853 0.099916 1.915739 0.532484 0.940478 12.049845 3.456056 -9.597477 10.180551 -3.042367 -10.059545 -14.904574 -1.071906 15.272634 -3.370732 -6.496272 -17.728776 -34.485071 -25.454030 -129.511715 -56.925613 138.663760 -10.033385 3.076602 10.134855 -5.449950 -3.531909 -1.931986 -2.091766 -14.713746 3.187019 117.219938 -53.570808 -161.574447 2.102244 0.573376 -28.721417 -7.196702 -66.971688 17.077919 -147.622356 67.763104 -146.742098 -12.405672 -25.301439 8.868740 0.310075 -0.720835 0.221386 -0.413424 -56.160651 1.124839 172.342781 61.180791 173.329081 -1.065104 -38.550262 1.077930 0.172973 0.404281 0.080164
-48.973979 43.830828 24.608890 175.037420 -24.424630 -2.705518 1.085567 13.490935 3.315960 0.044889 1.127290 0.312945 0.084264 1.920812 0.534170 0.936464 12.081862 3.458121 -9.576985 10.242622 -2.963134 -9.995363 -14.847872 -1.008185 15.317997 -3.560885 -6.650264 -17.568285 -34.988934 -26.087088 -129.004707 -57.369037 137.117326 -10.763743 2.872888 8.389377 -5.499769 -3.530249 -1.926689 -2.130400 -14.606331 3.155277 117.446415 -53.567056 -161.704032 2.121356 0.578669 -28.730538 -7.130124 -66.921719 17.027297 -147.616761 67.759121 -146.746297 -12.410156 -25.294711 8.893951 0.294278 -0.733821 0.216109 -0.430095 -56.104437 1.101902 172.328990 61.182864 173.318833 -1.051728 -38.537538 1.071318 0.180970 0.400127 0.078498
-48.984170 43.831409 24.610528 175.072769 -24.499181 -2.740895 1.043733 13.547274 3.329664 0.028610 1.113268 0.310792 0.076847 1.933899 0.537212 0.929235 12.115518 3.460648 -9.558670 10.308377 -2.884750 -9.940330 -14.782729 -0.943239 15.358314 -3.765778 -6.844205 -17.298697 -35.484870 -26.734553 -128.227614 -57.730283 135.231615 -11.455235 2.587513 6.577587 -5.541420 -3.537529 -1.923509 -2.195657 -14.504774 3.154977 117.673193 -53.553071 -161.814868 2.221538 0.613303 -28.768167 -7.107606 -66.856533 17.005792 -147.611257 67.751496 -146.725555 -12.439285 -25.281218 8.903799 0.337133 -0.778362 0.204836 -0.469614 -56.037445 1.095145 172.298418 61.183155 173.300998 -1.029997 -38.525309 1.063152 0.180085 0.397208 0.072809
-48.997857 43.832259 24.612951 175.109855 -24.573566 -2.767060 0.986331 13.581932 3.327117 0.024186 1.120752 0.311682 0.079464 1.951941 0.540767 0.807979 12.157256 3.461831 -9.447024 10.366797 -2.828124 -9.893302 -14.706217 -0.876134 15.494967 -3.975119 -7.096117 -16.944579 -36.000567 -27.382444 -127.176022 -57.981313 133.006949 -12.081966 2.261965 4.805163 -5.482626 -3.565088 -1.944528 -2.259147 -14.412336 3.186369 117.880397 -53.576732 -161.934322 2.264699 0.571146 -28.783078 -7.056036 -66.791275 16.949174 -147.609846 67.746990 -146.708404 -12.464760 -25.275128 8.912717 0.360519 -0.788400 0.213178 -0.431173 -55.970594 0.991377 172.178990 61.184552 173.235492 -0.968769 -38.509736 1.031660 0.150850 0.393118 0.056730
